# xmcd
# 
# Track frame offsets:
#     150
#     13465
#     32298
#     46235
#     65201
#     81807
#     100180
#     116301
#     127618
#     149901
#     173773
#     188526
#     202350
#     225959
#     238663
# 
# Disc length: 3366
# 
# Revision: 1
# Processed by: cddbd v1.5.2PL0 Copyright (c) Steve Scherf et al.
# Submitted via: fre:ac v1.0.31
# 
DISCID=c70d240f
DTITLE=Dailey and Vincent - Patriots and Poets
DYEAR=2017
DGENRE=Folk
TTITLE0=Gimme All the Love You Got
TTITLE1=Beautiful Scars
TTITLE2=Baton Rouge
TTITLE3=Until We're Gone
TTITLE4=Bill and Ole Elijah
TTITLE5=Unsung Heroes
TTITLE6=Spring Hill
TTITLE7=God's Love
TTITLE8=California
TTITLE9=Here Comes the Flood
TTITLE10=That Feel Good Music
TTITLE11=He's Been So Good to Me
TTITLE12=No Place Love Won't Go
TTITLE13=That's What We're Put Here to Do
TTITLE14=America We Love You
EXTD=
EXTT0=
EXTT1=
EXTT2=
EXTT3=
EXTT4=
EXTT5=
EXTT6=
EXTT7=
EXTT8=
EXTT9=
EXTT10=
EXTT11=
EXTT12=
EXTT13=
EXTT14=
PLAYORDER=
